<svg width="28" height="26" viewBox="0 0 28 26" fill="none" xmlns="http://www.w3.org/2000/svg">
<path fill-rule="evenodd" clip-rule="evenodd" d="M8.97663 1.72093C9.45185 1.72093 9.8371 1.33569 9.8371 0.860465C9.8371 0.385243 9.45185 0 8.97663 0C8.50141 0 8.11617 0.385243 8.11617 0.860465C8.11617 1.33569 8.50141 1.72093 8.97663 1.72093ZM18.0349 2.80234C18.0349 3.27756 17.6497 3.6628 17.1745 3.6628C16.6992 3.6628 16.314 3.27756 16.314 2.80234C16.314 2.32712 16.6992 1.94187 17.1745 1.94187C17.6497 1.94187 18.0349 2.32712 18.0349 2.80234ZM5.75593 4.00001C6.23115 4.00001 6.61639 3.61476 6.61639 3.13954C6.61639 2.66432 6.23115 2.27908 5.75593 2.27908C5.2807 2.27908 4.89546 2.66432 4.89546 3.13954C4.89546 3.61476 5.2807 4.00001 5.75593 4.00001ZM10.0581 5.16278C10.0581 6.11323 9.28761 6.88371 8.33717 6.88371C7.38673 6.88371 6.61624 6.11323 6.61624 5.16278C6.61624 4.21234 7.38673 3.44185 8.33717 3.44185C9.28761 3.44185 10.0581 4.21234 10.0581 5.16278ZM4.67436 15.1163C4.67436 16.0667 3.90387 16.8372 2.95342 16.8372C2.00298 16.8372 1.23249 16.0667 1.23249 15.1163C1.23249 14.1658 2.00298 13.3953 2.95342 13.3953C3.90387 13.3953 4.67436 14.1658 4.67436 15.1163ZM1.72093 12.5698C2.67137 12.5698 3.44186 11.7993 3.44186 10.8488C3.44186 9.8984 2.67137 9.12792 1.72093 9.12792C0.770487 9.12792 0 9.8984 0 10.8488C0 11.7993 0.770487 12.5698 1.72093 12.5698ZM6.61639 7.74419C6.61639 8.21941 6.23115 8.60466 5.75593 8.60466C5.2807 8.60466 4.89546 8.21941 4.89546 7.74419C4.89546 7.26897 5.2807 6.88373 5.75593 6.88373C6.23115 6.88373 6.61639 7.26897 6.61639 7.74419ZM15.5814 21.6977C16.0566 21.6977 16.4418 21.3124 16.4418 20.8372C16.4418 20.362 16.0566 19.9767 15.5814 19.9767C15.1061 19.9767 14.7209 20.362 14.7209 20.8372C14.7209 21.3124 15.1061 21.6977 15.5814 21.6977ZM23.5696 8.68605C23.5696 9.16127 23.1844 9.54651 22.7092 9.54651C22.234 9.54651 21.8487 9.16127 21.8487 8.68605C21.8487 8.21083 22.234 7.82558 22.7092 7.82558C23.1844 7.82558 23.5696 8.21083 23.5696 8.68605ZM18.8952 8.26744C19.3705 8.26744 19.7557 7.88219 19.7557 7.40697C19.7557 6.93175 19.3705 6.5465 18.8952 6.5465C18.42 6.5465 18.0348 6.93175 18.0348 7.40697C18.0348 7.88219 18.42 8.26744 18.8952 8.26744ZM3.37211 19.1861C3.37211 19.6613 2.98687 20.0465 2.51165 20.0465C2.03643 20.0465 1.65118 19.6613 1.65118 19.1861C1.65118 18.7108 2.03643 18.3256 2.51165 18.3256C2.98687 18.3256 3.37211 18.7108 3.37211 19.1861ZM23.8935 16.6924C24.3671 16.6536 24.7196 16.2382 24.6809 15.7646C24.6421 15.2909 24.2267 14.9384 23.753 14.9772C23.2794 15.016 22.9269 15.4314 22.9657 15.905C23.0045 16.3787 23.4199 16.7312 23.8935 16.6924ZM12.558 20.8372C12.558 21.3124 12.1728 21.6977 11.6975 21.6977C11.2223 21.6977 10.8371 21.3124 10.8371 20.8372C10.8371 20.362 11.2223 19.9767 11.6975 19.9767C12.1728 19.9767 12.558 20.362 12.558 20.8372ZM2.58152 6.5465C3.05675 6.5465 3.44199 6.16126 3.44199 5.68603C3.44199 5.21081 3.05675 4.82557 2.58152 4.82557C2.1063 4.82557 1.72106 5.21081 1.72106 5.68603C1.72106 6.16126 2.1063 6.5465 2.58152 6.5465ZM7.25593 20.4302C7.25593 20.9055 6.87069 21.2907 6.39547 21.2907C5.92024 21.2907 5.535 20.9055 5.535 20.4302C5.535 19.955 5.92024 19.5698 6.39547 19.5698C6.87069 19.5698 7.25593 19.955 7.25593 20.4302ZM6.84895 18.3488C7.32417 18.3488 7.70942 17.9636 7.70942 17.4884C7.70942 17.0132 7.32417 16.6279 6.84895 16.6279C6.37373 16.6279 5.98849 17.0132 5.98849 17.4884C5.98849 17.9636 6.37373 18.3488 6.84895 18.3488ZM17.3022 5.68603C17.3022 6.16126 16.917 6.5465 16.4418 6.5465C15.9665 6.5465 15.5813 6.16126 15.5813 5.68603C15.5813 5.21081 15.9665 4.82557 16.4418 4.82557C16.917 4.82557 17.3022 5.21081 17.3022 5.68603ZM6.61639 11.3488C6.61639 11.8241 6.23115 12.2093 5.75593 12.2093C5.2807 12.2093 4.89546 11.8241 4.89546 11.3488C4.89546 10.8736 5.2807 10.4884 5.75593 10.4884C6.23115 10.4884 6.61639 10.8736 6.61639 11.3488ZM13.8722 26C14.8226 26 15.5931 25.2295 15.5931 24.2791C15.5931 23.3286 14.8226 22.5581 13.8722 22.5581C12.9217 22.5581 12.1512 23.3286 12.1512 24.2791C12.1512 25.2295 12.9217 26 13.8722 26ZM24.4302 19.9767C24.4302 20.9272 23.6597 21.6977 22.7093 21.6977C21.7588 21.6977 20.9883 20.9272 20.9883 19.9767C20.9883 19.0263 21.7588 18.2558 22.7093 18.2558C23.6597 18.2558 24.4302 19.0263 24.4302 19.9767ZM20.8953 14.2907C21.8458 14.2907 22.6162 13.5202 22.6162 12.5698C22.6162 11.6193 21.8458 10.8488 20.8953 10.8488C19.9449 10.8488 19.1744 11.6193 19.1744 12.5698C19.1744 13.5202 19.9449 14.2907 20.8953 14.2907ZM23.1163 4.38372C23.1163 5.33417 22.3458 6.10465 21.3954 6.10465C20.4449 6.10465 19.6745 5.33417 19.6745 4.38372C19.6745 3.43328 20.4449 2.66279 21.3954 2.66279C22.3458 2.66279 23.1163 3.43328 23.1163 4.38372ZM12.6394 4.30234C13.5898 4.30234 14.3603 3.53185 14.3603 2.58141C14.3603 1.63096 13.5898 0.860477 12.6394 0.860477C11.689 0.860477 10.9185 1.63096 10.9185 2.58141C10.9185 3.53185 11.689 4.30234 12.6394 4.30234ZM27.0116 11.6977C27.0116 12.6481 26.2411 13.4186 25.2907 13.4186C24.3403 13.4186 23.5698 12.6481 23.5698 11.6977C23.5698 10.7472 24.3403 9.97675 25.2907 9.97675C26.2411 9.97675 27.0116 10.7472 27.0116 11.6977ZM18.8953 20.8372C19.8458 20.8372 20.6162 20.0667 20.6162 19.1163C20.6162 18.1658 19.8458 17.3953 18.8953 17.3953C17.9449 17.3953 17.1744 18.1658 17.1744 19.1163C17.1744 20.0667 17.9449 20.8372 18.8953 20.8372ZM21.3953 24.2674C21.3953 25.2179 20.6248 25.9884 19.6743 25.9884C18.7239 25.9884 17.9534 25.2179 17.9534 24.2674C17.9534 23.317 18.7239 22.5465 19.6743 22.5465C20.6248 22.5465 21.3953 23.317 21.3953 24.2674ZM8.97671 25.1395C9.92715 25.1395 10.6976 24.369 10.6976 23.4186C10.6976 22.4682 9.92715 21.6977 8.97671 21.6977C8.02627 21.6977 7.25578 22.4682 7.25578 23.4186C7.25578 24.369 8.02627 25.1395 8.97671 25.1395Z" fill="url(#paint0_linear)"/>
<defs>
<linearGradient id="paint0_linear" x1="-2.20267" y1="26.0262" x2="21.5339" y2="8.49183" gradientUnits="userSpaceOnUse">
<stop stop-color="#0C5863"/>
<stop offset="1" stop-color="#04BBC3"/>
</linearGradient>
</defs>
</svg>
