<svg width="41" height="41" viewBox="0 0 41 41" fill="none" xmlns="http://www.w3.org/2000/svg">
    <g clip-path="url(#clip0)">
        <path fill-rule="evenodd" clip-rule="evenodd" d="M29.8288 23.9681H26.7454V13.9473C26.7454 12.6701 25.7101 11.6348 24.4329 11.6348H14.4121C13.1349 11.6348 12.0996 12.6701 12.0996 13.9473V25.5098C12.0996 27.6384 13.8252 29.3639 15.9538 29.3639H26.7454C28.874 29.3639 30.5996 27.6384 30.5996 25.5098V24.7389C30.5996 24.3132 30.2545 23.9681 29.8288 23.9681L29.8288 23.9681ZM13.6413 25.5098V13.9473C13.6413 13.5215 13.9864 13.1764 14.4121 13.1764H24.4329C24.8586 13.1764 25.2038 13.5215 25.2038 13.9473V23.9681H19.0371C18.6114 23.9681 18.2663 24.3132 18.2663 24.7389V25.5098C18.2663 26.7869 17.2309 27.8223 15.9538 27.8223C14.6766 27.8223 13.6413 26.7869 13.6413 25.5098L13.6413 25.5098ZM26.7454 27.8223H19.0178C19.5277 27.159 19.8053 26.3464 19.8079 25.5098H29.0579C29.0579 26.7869 28.0226 27.8223 26.7454 27.8223Z" fill="#42A1A2" />
        <path d="M16.1458 15.8747H23.0833C23.5091 15.8747 23.8542 15.5296 23.8542 15.1038C23.8542 14.6781 23.5091 14.333 23.0833 14.333H16.1458C15.7201 14.333 15.375 14.6781 15.375 15.1038C15.375 15.5296 15.7201 15.8747 16.1458 15.8747Z" fill="#42A1A2" />
        <path d="M16.1458 18.9572H23.0833C23.5091 18.9572 23.8542 18.6121 23.8542 18.1864C23.8542 17.7606 23.5091 17.4155 23.0833 17.4155H16.1458C15.7201 17.4155 15.375 17.7606 15.375 18.1864C15.375 18.6121 15.7201 18.9572 16.1458 18.9572Z" fill="#42A1A2" />
        <path d="M23.0833 22.0417C23.5091 22.0417 23.8542 21.6965 23.8542 21.2708C23.8542 20.8451 23.5091 20.5 23.0833 20.5H16.1458C15.7201 20.5 15.375 20.8451 15.375 21.2708C15.375 21.6965 15.7201 22.0417 16.1458 22.0417H23.0833Z" fill="#42A1A2" />
    </g>
    <defs>
        <clipPath id="clip0">
            <rect x="12.0996" y="11.6348" width="18.5" height="17.7292" fill="white" />
        </clipPath>
    </defs>
</svg>