<svg xmlns="http://www.w3.org/2000/svg" xml:space="preserve" viewBox="0 0 13.197385 9.1467447"><defs><linearGradient id="a" x1="10.561" x2="10.561" y1="30.514" y2="6.1859999" gradientTransform="translate(-54.996601 96.525321) scale(.26458333)" gradientUnits="userSpaceOnUse"><stop stop-color="#EDCF00"/><stop offset=".33" stop-color="#F0D500"/><stop offset=".77" stop-color="#F9E500"/><stop offset="1" stop-color="#FFF100"/></linearGradient><linearGradient id="b" x1="46.089001" x2="46.089001" y1="30.691999" y2="13.092" gradientTransform="translate(-54.996601 96.525321) scale(.26458333)" gradientUnits="userSpaceOnUse"><stop stop-color="#EDCF00"/><stop offset=".59" stop-color="#F7E100"/><stop offset="1" stop-color="#FFF100"/></linearGradient><radialGradient id="c" cx="0" cy="0" r="1" gradientTransform="matrix(4.905322 0 0 4.8719316 -54.017378 108.99646)" gradientUnits="userSpaceOnUse"><stop stop-color="#FFF100"/><stop offset=".23" stop-color="#F9E500"/><stop offset=".67" stop-color="#F0D500"/><stop offset="1" stop-color="#EDCF00"/></radialGradient></defs><path fill="#fff100" d="M-41.56053 105.57116v-.64056c0-.11906-.20029-.23256-.559859-.33496l.0087-.79719c0-1.22819-.381-2.42649-1.091671-3.43297a6.0391145 6.0391145 0 0 0-2.880254-2.193392l-.02567-.159809a.45561249.45561249 0 0 0-.10795-.230716.46222708.46222708 0 0 0-.215635-.137848 6.1245749 6.1245749 0 0 0-3.41974 0c-.08387.02461-.15875.07223-.216429.137583-.05741.06509-.09525.144992-.108479.230717l-.02461.14896a6.040702 6.040702 0 0 0-2.900363 2.191545 5.9525958 5.9525958 0 0 0-1.100402 3.44567v.80063c-.354542.10213-.552185.21431-.552185.33258v.64055a.15610416.15610416 0 0 0 .02302.10795 1.5483416 1.5483416 0 0 1 .594519-.26855c.548217-.13229 1.105694-.22489 1.667669-.27675a1.1244792 1.1244792 0 0 1 .874977.27966 2.3680208 2.3680208 0 0 0 1.589881.61172h3.694642a2.3661687 2.3661687 0 0 0 1.589616-.61225 1.1252729 1.1252729 0 0 1 .875242-.28284c.56171.0519 1.119188.14394 1.667404.2757a1.3917083 1.3917083 0 0 1 .563563.24474c.0093.009.02064.0175.02858.0262a.15875.15875 0 0 0 .0254-.10636z" style="stroke-width:.264583" transform="translate(54.756857 -97.400192)"/><path fill="url(#a)" d="M-51.586122 104.22311a14.03985 14.03985 0 0 1-.0079-.44265c.0019-2.22673.52705-4.223808 1.392237-5.618427a6.040702 6.040702 0 0 0-2.900362 2.191277 5.9525958 5.9525958 0 0 0-1.100667 3.44488v.80063a14.790208 14.790208 0 0 1 2.616729-.37571z" style="fill:url(#a);stroke-width:.264583" transform="translate(54.756857 -97.400192)"/><path fill="url(#b)" d="M-42.112187 103.79819a5.9332812 5.9332812 0 0 0-1.379802-3.808944 12.316354 12.316354 0 0 1 .57203 3.790154c0 .21696-.0058.43127-.01588.64426a7.5379791 7.5379791 0 0 1 .813329.17145l.01005-.79692z" style="fill:url(#b);stroke-width:.264583" transform="translate(54.756857 -97.400192)"/><path fill="url(#c)" d="M-42.178068 105.40897c-.548481-.13229-1.105958-.22489-1.667669-.27675a1.1250083 1.1250083 0 0 0-.875241.28098 2.3661687 2.3661687 0 0 1-1.589881.61199h-3.693055a2.3674916 2.3674916 0 0 1-1.589087-.61172 1.1242146 1.1242146 0 0 0-.875242-.28337c-.561975.0519-1.119187.14446-1.667668.27649a1.5687146 1.5687146 0 0 0-.594255.26855c.280459.42545 3.117321.8718 6.573838.8718 3.456781 0 6.292321-.44794 6.573308-.87153-.0098-.008-.02064-.0167-.02884-.0259a1.4454187 1.4454187 0 0 0-.566208-.24051z" style="fill:url(#c);stroke-width:.264583" transform="translate(54.756857 -97.400192)"/><path fill="#0a0a0a" d="m-48.15818 99.280692-1.414463 2.387068 1.414463.87048v-3.257813z" style="stroke-width:.264583" transform="translate(54.756857 -97.400192)"/><path fill="#4b4d4d" d="M-48.157651 99.281486v3.255964l1.414198-.86889zm0 3.728774v1.13533c.02646-.0376 1.414198-2.00555 1.414198-2.00634l-1.414198.87127z" style="stroke-width:.264583" transform="translate(54.756857 -97.400192)"/><path fill="#0a0a0a" d="m-48.157651 103.01079-1.414463-.86995 1.414463 2.00554v-1.13612z" style="stroke-width:.264583" transform="translate(54.756857 -97.400192)"/></svg>