<svg width="28" height="28" viewBox="0 0 28 28" fill="none" xmlns="http://www.w3.org/2000/svg">
<circle cx="14" cy="14" r="14" fill="url(#paint0_linear)"/>
<path d="M19.0769 11.2913H17.8883L18.1286 10.136C18.2297 9.62825 17.9009 9.13315 17.4078 9.03159C16.902 8.93003 16.4089 9.2474 16.3077 9.7552L15.9916 11.2786H13.3488L13.589 10.1234C13.6902 9.61556 13.3614 9.12045 12.8683 9.01889C12.3625 8.91733 11.8693 9.23471 11.7682 9.7425L11.4521 11.2659H9.87144C9.353 11.2659 8.93572 11.6848 8.93572 12.2053C8.93572 12.7258 9.353 13.1447 9.87144 13.1447H11.0601L10.5163 15.8234H8.93572C8.41728 15.8234 8 16.2423 8 16.7628C8 17.2833 8.41728 17.7022 8.93572 17.7022H10.1243L9.88409 18.8575C9.78293 19.3653 10.1117 19.8604 10.6048 19.9619C10.6681 19.9746 10.7313 19.9873 10.7945 19.9873C11.2244 19.9873 11.6164 19.6826 11.705 19.2383L12.0211 17.7149H14.6512L14.411 18.8702C14.3098 19.3779 14.6386 19.873 15.1317 19.9746C15.1949 19.9873 15.2582 20 15.3214 20C15.7513 20 16.1433 19.6953 16.2318 19.251L16.5479 17.7276H18.1286C18.647 17.7276 19.0643 17.3087 19.0643 16.7882C19.0643 16.2677 18.647 15.8488 18.1286 15.8488H16.9399L17.4837 13.1701H19.0643C19.5827 13.1701 20 12.7512 20 12.2307C20 11.7102 19.5954 11.2913 19.0769 11.2913ZM15.0432 15.8361H12.4131L12.9568 13.1574H15.5869L15.0432 15.8361Z" fill="white"/>
<defs>
<linearGradient id="paint0_linear" x1="-5.36442e-07" y1="28" x2="28" y2="4" gradientUnits="userSpaceOnUse">
<stop stop-color="#027380"/>
<stop offset="1" stop-color="#04BBC3"/>
</linearGradient>
</defs>
</svg>
