<svg width="41" height="41" viewBox="0 0 41 41" fill="none" xmlns="http://www.w3.org/2000/svg">
    <g clip-path="url(#clip0)">
        <path fill-rule="evenodd" clip-rule="evenodd" d="M14.264 19.3957C13.0536 19.3758 12.0867 18.3818 12.1002 17.1713C12.1045 17.1029 12.1188 17.0355 12.1427 16.9713L14.3246 11.3163C14.4086 11.076 14.6338 10.9138 14.8883 10.9102H17.137C17.3251 10.9052 17.5049 10.9878 17.6236 11.1338C17.7423 11.2798 17.7864 11.4726 17.7431 11.6557L16.4278 17.2501C16.4018 18.4312 15.4453 19.3797 14.264 19.3957V19.3957ZM13.3185 17.2743C13.3526 17.7756 13.7618 18.1691 14.264 18.1835C14.8073 18.167 15.2353 17.7147 15.2217 17.1713C15.2157 17.1271 15.2157 17.0822 15.2217 17.038L16.3733 12.1224H15.3065L13.3185 17.2743Z" fill="#42A1A2" />
        <path fill-rule="evenodd" clip-rule="evenodd" d="M17.3856 19.3957C16.1738 19.3791 15.2049 18.3831 15.2218 17.1713C15.2158 17.127 15.2158 17.0822 15.2218 17.038L16.5431 11.3769C16.609 11.0974 16.8621 10.9025 17.1492 10.9102H19.3918C19.5598 10.9108 19.72 10.981 19.8342 11.1042C19.951 11.2279 20.0104 11.3951 19.9979 11.5648L19.5615 17.2198C19.5582 18.4201 18.5859 19.3924 17.3856 19.3957L17.3856 19.3957ZM16.434 17.2319C16.4507 17.7575 16.8903 18.1699 17.4159 18.1532C17.9414 18.1365 18.3539 17.6968 18.3372 17.1713L18.7251 12.1224H17.6159L16.434 17.2319Z" fill="#42A1A2" />
        <path fill-rule="evenodd" clip-rule="evenodd" d="M20.5009 19.3955C19.2891 19.3789 18.3203 18.3829 18.3371 17.1711L18.7735 11.4676C18.7989 11.152 19.063 10.909 19.3796 10.91H21.6222C21.9389 10.909 22.203 11.1519 22.2283 11.4676L22.6647 17.1287C22.681 17.7169 22.4616 18.2873 22.0552 18.713C21.6489 19.1387 21.0893 19.3844 20.5009 19.3955L20.5009 19.3955ZM19.9373 12.1222L19.5493 17.2196C19.5525 17.7458 19.9748 18.1734 20.5009 18.1833C21.0433 18.1668 21.4695 17.7135 21.4525 17.1711L21.0646 12.1222H19.9373Z" fill="#42A1A2" />
        <path fill-rule="evenodd" clip-rule="evenodd" d="M23.616 19.3957C22.4042 19.3791 21.4353 18.3831 21.4522 17.1713L21.0158 11.5648C21.0033 11.3951 21.0627 11.2279 21.1795 11.1042C21.2937 10.981 21.4539 10.9108 21.6219 10.9102H23.8645C24.1516 10.9025 24.4047 11.0974 24.4706 11.3769L25.7798 17.038C25.7858 17.0822 25.7858 17.1271 25.7798 17.1713C25.7967 18.3831 24.8278 19.3791 23.616 19.3957L23.616 19.3957ZM22.2765 12.1224L22.6644 17.1289C22.6496 17.3952 22.7417 17.6564 22.9204 17.8545C23.0991 18.0525 23.3495 18.171 23.616 18.1835C24.1362 18.1707 24.5548 17.7521 24.5676 17.2319L23.3857 12.1224H22.2765Z" fill="#42A1A2" />
        <path fill-rule="evenodd" clip-rule="evenodd" d="M26.7374 19.3957C25.5561 19.3797 24.5996 18.4312 24.5736 17.2501L23.2766 11.6557C23.2332 11.4726 23.2774 11.2798 23.3961 11.1338C23.5148 10.9878 23.6946 10.9052 23.8827 10.9102H26.1313C26.3812 10.911 26.605 11.065 26.695 11.2981L28.8588 16.9713C28.8845 17.0413 28.8988 17.1149 28.9012 17.1895C28.9047 18.3929 27.9407 19.3758 26.7374 19.3957L26.7374 19.3957ZM24.6282 12.1224L25.7677 17.038C25.7737 17.0822 25.7737 17.1271 25.7677 17.1713C25.7612 17.4344 25.8599 17.6892 26.0419 17.8792C26.224 18.0692 26.4743 18.1787 26.7374 18.1835C27.2397 18.169 27.6488 17.7756 27.683 17.2743L25.6949 12.1224L24.6282 12.1224Z" fill="#42A1A2" />
        <path d="M26.738 29.0929H14.2643C13.9296 29.0929 13.6582 28.8216 13.6582 28.4868V18.7891C13.6582 18.4544 13.9296 18.183 14.2643 18.183C14.5991 18.183 14.8704 18.4544 14.8704 18.7891V27.8807H26.1319V18.7891C26.1319 18.4544 26.4032 18.183 26.738 18.183C27.0727 18.183 27.3441 18.4544 27.3441 18.7891V28.4868C27.3441 28.8216 27.0727 29.0929 26.738 29.0929Z" fill="#42A1A2" />
        <path fill-rule="evenodd" clip-rule="evenodd" d="M22.8404 29.0932H18.1613C17.8265 29.0932 17.5552 28.8218 17.5552 28.4871V22.8321C17.5552 22.4974 17.8265 22.226 18.1613 22.226H22.8404C23.1751 22.226 23.4465 22.4974 23.4465 22.8321V28.4871C23.4465 28.8218 23.1752 29.0932 22.8404 29.0932ZM18.7674 27.881H22.2343V23.4382H18.7674V27.881Z" fill="#42A1A2" />
    </g>
    <defs>
        <clipPath id="clip0">
            <rect width="16.801" height="18.1832" fill="white" transform="translate(12.1001 10.91)" />
        </clipPath>
    </defs>
</svg>