<svg width="41" height="41" viewBox="0 0 41 41" fill="none" xmlns="http://www.w3.org/2000/svg">
    <path d="M24.7378 11H15.6084C14.1699 11 13 12.1701 13 13.6084V27.9545C13 28.3146 13.292 28.6066 13.652 28.6066C13.7828 28.6066 14.0131 28.4975 14.0137 28.4971L15.6082 27.434L17.2101 28.5019C17.2101 28.5019 17.3632 28.6066 17.5645 28.6066C17.7487 28.6066 17.8915 28.5202 17.8915 28.5202L20.1729 27.3795L22.4724 28.529C22.4724 28.529 22.606 28.6066 22.7813 28.6066C22.9923 28.6066 23.1715 28.4768 23.1715 28.4768L24.7376 27.4338L26.3321 28.4969C26.3329 28.4975 26.4829 28.6064 26.6937 28.6064C27.0538 28.6064 27.3458 28.3144 27.3458 27.9544V13.6084C27.3462 12.1701 26.1763 11 24.7378 11ZM22.7348 27.2019L20.1733 25.9212L17.6118 27.2019L15.6088 25.8667L14.3045 26.736V13.6084C14.3045 12.889 14.8898 12.3041 15.6088 12.3041H24.7382C25.4571 12.3041 26.0425 12.889 26.0425 13.6084V26.7362L24.7382 25.8669L22.7348 27.2019Z" fill="#42A1A2" />
    <path d="M24.0858 14.9127H16.2604C15.9 14.9127 15.6084 15.2047 15.6084 15.5647C15.6084 15.9248 15.9 16.2168 16.2604 16.2168H24.0856C24.446 16.2168 24.7376 15.9248 24.7376 15.5647C24.7378 15.2045 24.4462 14.9127 24.0858 14.9127Z" fill="#42A1A2" />
    <path d="M24.0858 18.1731H16.2604C15.9 18.1731 15.6084 18.4651 15.6084 18.8251C15.6084 19.1852 15.9 19.4772 16.2604 19.4772H24.0856C24.446 19.4772 24.7376 19.1852 24.7376 18.8251C24.7376 18.4651 24.4462 18.1731 24.0858 18.1731Z" fill="#42A1A2" />
    <path d="M24.0858 21.4335H16.2604C15.9 21.4335 15.6084 21.7255 15.6084 22.0856C15.6084 22.4456 15.9 22.7376 16.2604 22.7376H24.0856C24.446 22.7376 24.7376 22.4456 24.7376 22.0856C24.7376 21.7255 24.4462 21.4335 24.0858 21.4335Z" fill="#42A1A2" />
</svg>